<?xml version="1.0" encoding="UTF-8" standalone="no"?>
<!-- Generator: Adobe Illustrator 18.0.0, SVG Export Plug-In . SVG Version: 6.00 Build 0)  -->

<svg
   version="1.1"
   id="Layer_1"
   x="0px"
   y="0px"
   viewBox="0 0 512 512"
   enable-background="new 0 0 512 512"
   xml:space="preserve"
   sodipodi:docname="atcnea.svg"
   inkscape:version="1.2.2 (b0a8486541, 2022-12-01)"
   xmlns:inkscape="http://www.inkscape.org/namespaces/inkscape"
   xmlns:sodipodi="http://sodipodi.sourceforge.net/DTD/sodipodi-0.dtd"
   xmlns="http://www.w3.org/2000/svg"
   xmlns:svg="http://www.w3.org/2000/svg"><defs
   id="defs15" /><sodipodi:namedview
   id="namedview13"
   pagecolor="#505050"
   bordercolor="#ffffff"
   borderopacity="1"
   inkscape:showpageshadow="0"
   inkscape:pageopacity="0"
   inkscape:pagecheckerboard="1"
   inkscape:deskcolor="#505050"
   showgrid="false"
   inkscape:zoom="0.37011719"
   inkscape:cx="274.23747"
   inkscape:cy="318.81794"
   inkscape:window-width="941"
   inkscape:window-height="505"
   inkscape:window-x="0"
   inkscape:window-y="0"
   inkscape:window-maximized="1"
   inkscape:current-layer="Layer_1" />
<g
   id="g10"
   style="fill:#fff;fill-opacity:1">
	<path
   fill="#EE8C22"
   d="M506.3,91.1C391.6-23.3,205.8-23.1,91.4,91.7C-23,206.4-22.8,392.1,91.9,506.5l26.5-28.7   c-7.7-7.7-14.8-15.9-21.1-24.4C35.4,369.7,42.2,251,118,175.1c83.5-83.7,219.1-83.9,302.8-0.4L506.3,91.1z"
   id="path2"
   style="fill:#fff;fill-opacity:1" />
	<g
   id="g8"
   style="fill:#fff;fill-opacity:1">
		<path
   fill="none"
   d="M380.8,409.3L380.8,409.3C380.8,409.2,380.8,409.3,380.8,409.3L380.8,409.3z"
   id="path4"
   style="fill:#fff;fill-opacity:1" />
		<path
   fill="#EE8C22"
   d="M406,321.3c0-82.8-67.1-150-150-150c-5.7,0-11.2,0.3-16.7,0.9c0.1,0,0.1,0,0.2,0.1    c126.5,60.8,151.1,230.2,138.8,234.5c0,0-26.4-156-175.7-225.3c-0.2-0.1-0.3-0.2-0.4-0.2c-6.3,2.5-12.5,5.3-18.4,8.6    c0.2,0.1,0.4,0.1,0.5,0.2C320.6,250.9,349.5,395.5,347,440.5l-5.2,3.8c-2.2-35.6-21.5-161.3-181.1-238.8    c-4.7,3.9-9.1,8.1-13.3,12.5c0.3,0.1,0.5,0.2,0.8,0.3c131.3,57,163.9,200.5,162.2,242.8l-4.9,1.8c-3.2-35.1-25-154.1-173.5-225.9    c-3,4.4-5.7,8.9-8.2,13.5c114.1,51.7,148.6,163.4,152.1,219.5l-8,0.8C260.2,423,230,333.1,114.1,272.6    c-5.2,15.3-8.1,31.6-8.1,48.7c0,76.7,57.6,139.9,131.8,148.8h-0.4l2.3,0.2c0.5,0.1,1,0.1,1.5,0.2c2.5,0.2,5,0.5,7.5,0.7L406,487.5    C406,487.5,406,326.1,406,321.3z M380.8,409.3L380.8,409.3C380.8,409.3,380.8,409.2,380.8,409.3L380.8,409.3z"
   id="path6"
   style="fill:#fff;fill-opacity:1" />
	</g>
</g>
</svg>
